<svg xmlns="http://www.w3.org/2000/svg"><defs><font horiz-adv-x="1229"><font-face units-per-em="2048" ascent="1638" descent="-410"/><glyph horiz-adv-x="2048"/><glyph horiz-adv-x="2048"/><glyph horiz-adv-x="573"/><glyph horiz-adv-x="573"/><glyph horiz-adv-x="573"/><glyph horiz-adv-x="573"/><glyph unicode="!" horiz-adv-x="573" d="M115 143q0 71 50 121t121 50 121.5-50 50.5-121q0-70-50.5-120.5t-121.5-50.5-121 50-50 121zm33 290v1075h276v-1075h-276z"/><glyph unicode=""" horiz-adv-x="737" d="M31 1508h267l-56-504h-156zm411 0h267l-56-504h-156z"/><glyph unicode="#" d="M61 479v199h256l30 188h-223v199h251l65 443h195l-62-443h191l65 443h201l-65-443h202v-199h-231l-26-188h200v-199h-231l-71-479h-201l70 479h-191l-70-479h-200l70 479h-225zm455 199h189l31 188h-194z"/><glyph unicode="$" horiz-adv-x="1147" d="M70 213l190 195q183-195 354-195 87 0 149.5 60.5t62.5 142.5q0 69-40 121-41 52-158 106-238 110-322 174.5t-125.5 145-41.5 171.5q0 151 110 258.5t278 115.5v100h188v-113q97-23 164.5-62t159.5-132l-193-188q-132 136-261 136-76 0-123.5-40.5t-47.5-93.5q0-45 42-89 41-45 166-96 222-92 304-157t126-156 44-204-47-209-121-152-213-85v-267h-188v261q-131 15-223 66-126 70-234 186z"/><glyph unicode="%" horiz-adv-x="1761" d="M42 1154q0 94 46 174.5t129.5 130 165.5 49.5q62 0 171-24 193-42 340-42 133 0 247.5 23.5t210.5 70.5h202l-1166-1636h-202l997 1405q-90-15-169-22.5t-146-7.5q-69 0-146 7 22-70 22-127 0-146-101.5-248t-247.5-102q-147 0-250 102t-103 247zm182 3q0-70 49.5-119.5t119.5-49.5 119.5 49.5 49.5 119.5-49.5 119-119.5 49-119.5-49.5-49.5-118.5zm793-846q0 146 102.5 249t248.5 103q145 0 248-103t103-249q0-145-103-248t-248-103q-146 0-248.5 103t-102.5 248zm180 1q0-70 49.5-120t120.5-50q70 0 119.5 50t49.5 120-49.5 120-119.5 50q-71 0-120.5-50t-49.5-120z"/><glyph unicode="&" horiz-adv-x="1393" d="M97 316q0 117 59 221t202 215q-141 191-141 338 0 109 94 215t265 106q173 0 265.5-105t92.5-212q0-84-42.5-161t-195.5-228q179-211 231-263 32 24 163 136l167-191-76-69-75-68 236-250h-339l-97 100q-232-137-431-137-169 0-273.5 99t-104.5 254zm261 15q0-43 40.5-79t102.5-36q89 0 223 78-77 76-217 252-149-123-149-215zm129 735q0-72 71-164 111 95 111 168 0 38-25 62t-66 24q-38 0-64.5-27t-26.5-63z"/><glyph unicode="'" horiz-adv-x="451" d="M92 1508h266l-55-504h-156z"/><glyph unicode="(" horiz-adv-x="778" d="M93 571q0 294 67 515t220 450h346q-178-201-265.5-436t-87.5-537q0-327 97-575 76-191 256-414h-346q-160 254-223.5 475.5t-63.5 521.5z"/><glyph unicode=")" horiz-adv-x="778" d="M53-426q178 201 265.5 435.5t87.5 537.5q0 327-97 574-76 191-256 415h346q160-254 223.5-475.5t63.5-521.5q0-294-67-515t-220-450h-346z"/><glyph unicode="*" horiz-adv-x="901" d="M52 1035l306 87-306 85 133 223 223-223-77 301h254l-79-301 226 213 117-220-305-78 305-87-132-217-218 217 77-300h-245l77 300-223-217z"/><glyph unicode="+" d="M115 610v250h375v375h250v-375h374v-250h-374v-374h-250v374h-375z"/><glyph unicode="," horiz-adv-x="573" d="M81-178l188 455 195-98-247-422z"/><glyph unicode="-" horiz-adv-x="860" d="M176 415v254h508v-254h-508z"/><glyph unicode="." horiz-adv-x="573" d="M130 129q0 65 46 110.5t111 45.5 111-45.5 46-110.5-46-111-111-46-111 46-46 111z"/><glyph unicode="/" horiz-adv-x="942" d="M44-262l661 1775h194l-662-1775h-193z"/><glyph unicode="0" horiz-adv-x="1147" d="M57 721q0 405 125 587 139 200 387 200 161 0 277.5-79t180-241.5 63.5-452.5q0-293-64.5-456t-173.5-239.5-275-76.5-279 77-177 234-64 447zm280-6q0-279 66.5-385.5t172.5-106.5q102 0 162 101 73 122 73 408 0 290-65.5 400t-169.5 110q-71 0-126-45.5t-84-156.5-29-325z"/><glyph unicode="1" horiz-adv-x="1147" d="M175 1208l162 263h419v-1471h-278v1208h-303z"/><glyph unicode="2" horiz-adv-x="1147" d="M44 0v134l455 464q165 167 219.5 268.5t54.5 183.5q0 85-56.5 140.5t-145.5 55.5q-90 0-150-67t-64-182h-273q11 238 149.5 374.5t355.5 136.5q134 0 236.5-56.5t164-163 61.5-216.5q0-131-74.5-282t-272.5-357l-165-174h524v-259h-1019z"/><glyph unicode="3" horiz-adv-x="1147" d="M61 445h277q18-114 79.5-169.5t155.5-55.5q98 0 162.5 63t64.5 154q0 100-87 169t-251 71v240q101 8 150.5 31.5t77 64.5 27.5 87q0 60-42 99.5t-110 39.5q-60 0-109-36.5t-67-94.5h-269q21 163 117 262 134 138 337 138 181 0 303.5-115t122.5-273q0-98-53.5-179t-155.5-131q134-40 209.5-139.5t75.5-234.5q0-198-146-335.5t-372-137.5q-214 0-349 129.5t-148 352.5z"/><glyph unicode="4" horiz-adv-x="1147" d="M42 302v259l636 947h280v-947h131v-259h-131v-302h-274v302h-642zm306 259h336v493z"/><glyph unicode="5" horiz-adv-x="1147" d="M48 363h294q34-69 89.5-104.5t122.5-35.5q93 0 158 67t65 172q0 102-60.5 167.5t-146.5 65.5q-46 0-90.5-23t-87.5-69l-228 51 178 817h689v-258h-480l-60-268q25 7 49 10.5t46 3.5q200 0 332.5-136.5t132.5-349.5q0-215-146.5-362.5t-356.5-147.5q-188 0-323 107t-177 293z"/><glyph unicode="6" horiz-adv-x="1147" d="M101 419q0 68 20.5 137t94.5 212l378 740 238-119-257-500q187 0 318-134t131-333q0-192-134.5-325.5t-324.5-133.5q-199 0-331.5 138.5t-132.5 317.5zm274 7q0-85 55.5-143t129.5-58q78 0 134 57t56 144q0 85-54.5 141.5t-136.5 56.5q-78 0-131-56.5t-53-141.5z"/><glyph unicode="7" horiz-adv-x="1147" d="M123 1208v263h965v-147l-664-1361-237 115 552 1130h-616z"/><glyph unicode="8" horiz-adv-x="1147" d="M63 415q0 116 50.5 211.5t151.5 170.5q-66 67-99.5 142.5t-33.5 159.5q0 115 55.5 209.5t155.5 147 231 52.5q129 0 227-53t154.5-150.5 56.5-209.5q0-79-29.5-146.5t-107.5-151.5q100-64 154.5-164.5t54.5-217.5q0-127-63.5-235t-170.5-162.5-273-54.5q-178 0-283 52.5t-168 159-63 240.5zm274 25q0-89 65-150.5t171-61.5q107 0 170.5 57.5t63.5 148.5-66 152.5-165 61.5q-101 0-170-61.5t-69-146.5zm70 636q0-71 47-119t116-48q71 0 116.5 47t45.5 122q0 71-46 115.5t-121 44.5q-69 0-113.5-45.5t-44.5-116.5z"/><glyph unicode="9" horiz-adv-x="1147" d="M123 1048q0 193 134.5 326.5t324.5 133.5q199 0 331.5-138.5t132.5-318.5q0-68-20.5-136.5t-94.5-211.5l-378-740-238 118 257 500q-187 0-318 134t-131 333zm274-3q0-85 54.5-142t136.5-57q78 0 131 57t53 141q0 86-55.5 144t-129.5 58q-78 0-134-57.5t-56-143.5z"/><glyph unicode=":" horiz-adv-x="573" d="M130 129q0 65 46 110.5t111 45.5 111-45.5 46-110.5-46-111-111-46-111 46-46 111zm0 830q0 65 46 111t111 46 111-46 46-111q0-64-46-110t-111-46-111 45.5-46 110.5z"/><glyph unicode=";" horiz-adv-x="573" d="M80-177l191 455 191-100-245-421zm50 1136q0 65 46 111t111 46 111-46 46-111-46-110.5-111-45.5-111 45.5-46 110.5z"/><glyph unicode="<" d="M115 624v222l999 508v-249l-712-370 712-369v-250z"/><glyph unicode="=" d="M115 396v250h999v-250h-999zm0 428v250h999v-250h-999z"/><glyph unicode=">" d="M115 116v250l713 369-713 370v249l999-508v-222z"/><glyph unicode="?" horiz-adv-x="1147" d="M100 1091q-2 193 132 319t353 126q141 0 240-52t158.5-150 59.5-206q0-59-19-116t-60-117q-24-35-115-118-87-79-109-111.5t-37-86.5-19-150h-271l-1 45q0 134 49 243.5t159 205.5q106 93 128 128t22 82q0 64-53.5 108.5t-143.5 44.5q-92 0-151-54.5t-60-140.5h-262zm282-947q0 71 50 121t121 50q73 0 124.5-50t51.5-121-51-121.5-123-50.5-122.5 50.5-50.5 121.5z"/><glyph unicode="@" horiz-adv-x="1515" d="M8 754q0 214 104.5 398t285 286 396.5 102q300 0 506.5-193t206.5-449q0-188-86.5-323.5t-235.5-211.5q-114-58-191-58-58 0-93 31-27 22-29 76-88-97-214-97-142 0-236.5 101t-94.5 269q0 185 116 330.5t308 145.5q79 0 141-32.5t106-98.5l21 105h196l-99-583q-10-62-10-70 0-11 10.5-20.5t24.5-9.5q35 0 94.5 48.5t97 140 37.5 200.5q0 162-71 286t-204 195-305 71q-181 0-325-80.5t-227-228-83-324.5q0-181 84-328t235-229 338-82q110 0 208 41t208 139h191q-109-135-193.5-196.5t-196.5-96.5-233-35q-214 0-397 104.5t-287 284.5-104 392zm565-49q0-81 46-130t120-49q87 0 144 71.5t57 161.5q0 78-46.5 127.5t-116.5 49.5q-82 0-143-67.5t-61-163.5z"/><glyph unicode="A" horiz-adv-x="1515" d="M49 0l567 1471h284l566-1471h-291l-115 303h-600l-120-303h-291zm515 576h391l-195 505z"/><glyph unicode="B" horiz-adv-x="1188" d="M168 0v1471h231q201 0 294-26 132-35 210-130t78-224q0-84-35.5-152.5t-115.5-128.5q134-63 196-157.5t62-223.5q0-124-64-226t-165-152.5-279-50.5h-412zm280 267h70q174 0 234.5 44t60.5 128q0 95-71 150t-236 55h-58v-377zm0 627h61q102 0 151.5 43t49.5 117q0 69-47 109.5t-143 40.5h-72v-310z"/><glyph unicode="C" horiz-adv-x="1597" d="M95 738q0 220 99.5 391t285 275 399.5 104q182 0 350.5-77t290.5-219l-196-187q-200 211-450 211-211 0-355.5-144t-144.5-355q0-147 64-261t181-179 260-65q122 0 223 45.5t222 165.5l190-198q-163-159-308-220.5t-331-61.5q-343 0-561.5 217.5t-218.5 557.5z"/><glyph unicode="D" horiz-adv-x="1434" d="M169 0v1471h332q321 0 477-79.5t257-258.5 101-418q0-170-56.5-312.5t-156-236.5-215.5-130-402-36h-337zm279 274h130q192 0 278.5 44t141.5 148 55 256q0 234-131 363-118 116-379 116h-95v-927z"/><glyph unicode="E" horiz-adv-x="1065" d="M169 0v1471h803v-274h-525v-266h525v-269h-525v-387h525v-275h-803z"/><glyph unicode="F" horiz-adv-x="983" d="M172 0v1471h730v-273h-453v-267h453v-269h-453v-662h-277z"/><glyph unicode="G" horiz-adv-x="1720" d="M102 743q0 292 193 508 229 257 596 257 192 0 359-71 141-60 276-206l-197-195q-187 198-436 198-217 0-363.5-144t-146.5-350q0-213 152-361t375-148q145 0 244.5 61t160.5 191h-426v263h740l2-62q0-193-100-366t-259-264-373-91q-229 0-408.5 99.5t-284 283.5-104.5 397z"/><glyph unicode="H" horiz-adv-x="1393" d="M167 0v1471h284v-555h492v555h283v-1471h-283v645h-492v-645h-284z"/><glyph unicode="I" horiz-adv-x="573" d="M148 0v1471h278v-1471h-278z"/><glyph unicode="J" horiz-adv-x="983" d="M38 176l202 189q67-76 114-102t91-26q45 0 67 38t22 167v1029h281v-976q0-233-37-327t-122-149.5-204-55.5q-243 0-414 213z"/><glyph unicode="K" horiz-adv-x="1270" d="M170 0v1471h283v-506l399 506h337l-514-656 564-815h-332l-454 653v-653h-283z"/><glyph unicode="L" horiz-adv-x="901" d="M168 0v1471h280v-1204h408v-267h-688z"/><glyph unicode="M" horiz-adv-x="1843" d="M56 0l254 1471h274l340-1026 345 1026h270l248-1471h-270l-158 929-313-929h-247l-309 929-161-929h-273z"/><glyph unicode="N" horiz-adv-x="1515" d="M169 0v1471h268l631-968v968h280v-1471h-269l-630 965v-965h-280z"/><glyph unicode="O" horiz-adv-x="1720" d="M96 736q0 211 102 388t280.5 280.5 384.5 103.5q312 0 536.5-226t224.5-551q0-322-221.5-545t-537.5-223q-331 0-550 229t-219 544zm282-5q0-244 175-386 136-111 312-111 199 0 339 144t140 355q0 210-141 355.5t-343 145.5q-204 0-343-142t-139-361z"/><glyph unicode="P" horiz-adv-x="1147" d="M167 0v1471h297q241 0 347.5-44.5t168-144 61.5-238.5q0-154-80.5-256t-218.5-142q-81-23-295-23v-623h-280zm280 896h89q105 0 146 15t64.5 49.5 23.5 83.5q0 85-66 124-48 29-178 29h-79v-301z"/><glyph unicode="Q" horiz-adv-x="1720" d="M96 736q0 211 102 387.5t280.5 280.5 383.5 104q313 0 537.5-226t224.5-551q0-299-194-516l256-331h-332l-130 167q-161-88-359-88-331 0-550 228.5t-219 544.5zm282-5q0-244 175-386 137-111 311-111 100 0 188 39l-263 339h334l132-171q89 132 89 292 0 209-141 355t-341 146q-206 0-345-142t-139-361z"/><glyph unicode="R" horiz-adv-x="1188" d="M187 0v1471h297q244 0 347.5-43.5t166.5-144.5 63-239q0-145-69.5-242.5t-209.5-147.5l348-654h-306l-331 623h-26v-623h-280zm280 896h88q134 0 184.5 35t50.5 116q0 48-25 83.5t-67 51-154 15.5h-77v-301z"/><glyph unicode="S" horiz-adv-x="1065" d="M41 282l235 142q106-195 244-195 72 0 121 42t49 97q0 50-37 100t-163 153q-240 196-310 302.5t-70 212.5q0 153 116.5 262.5t287.5 109.5q110 0 209.5-51t215.5-186l-207-183q-109 152-222 152-55 0-90-29.5t-35-66.5 25-70q34-44 205-189 160-134 194-169 85-86 120.5-164.5t35.5-171.5q0-181-125-299t-326-118q-157 0-273.5 77t-199.5 242z"/><glyph unicode="T" horiz-adv-x="860" d="M23 1195v276h813v-276h-268v-1195h-284v1195h-261z"/><glyph unicode="U" horiz-adv-x="1311" d="M158 594v877h281v-952q0-123 21.5-174t71-81.5 119.5-30.5q74 0 127.5 34t74 86.5 20.5 200.5v917h281v-877q0-222-25-308t-95.5-166-162.5-118.5-214-38.5q-160 0-278.5 73.5t-169.5 184-51 373.5z"/><glyph unicode="V" horiz-adv-x="1434" d="M56 1471h288l370-1045 375 1045h288l-530-1471h-270z"/><glyph unicode="W" horiz-adv-x="1843" d="M56 1471h276l212-939 263 939h233l266-939 210 939h276l-331-1471h-269l-271 951-266-951h-266z"/><glyph unicode="X" horiz-adv-x="1393" d="M41 0l497 759-466 712h315l308-471 311 471h315l-468-712 497-759h-315l-340 517-337-517h-317z"/><glyph unicode="Y" horiz-adv-x="1270" d="M63 1471h301l274-528 272 528h297l-430-834v-637h-282v637z"/><glyph unicode="Z" horiz-adv-x="1024" d="M47 0l523 1194h-480v277h890l-525-1202h491v-269h-899z"/><glyph unicode="[" horiz-adv-x="655" d="M169-398v1906h438v-255h-162v-1397h162v-254h-438z"/><glyph unicode="\" horiz-adv-x="1311" d="M228 1513h193l661-1775h-193z"/><glyph unicode="]" horiz-adv-x="655" d="M48-143h162v1397h-162v254h438v-1906h-438v255z"/><glyph unicode="^" d="M109 366l388 1105h232l390-1105h-242l-262 748-263-748h-243z"/><glyph unicode="_" horiz-adv-x="1024" d="M-12-154h1048v-102h-1048v102z"/><glyph unicode="`" horiz-adv-x="860" d="M59 1679h323l239-392h-196z"/><glyph unicode="a" horiz-adv-x="1352" d="M88 542q0 252 149 413t362 161q98 0 184-37t159-111v120h272v-1088h-272v115q-80-76-160.5-109.5t-174.5-33.5q-211 0-365 163.5t-154 406.5zm272 3q0-141 85.5-232t210.5-91q129 0 214 89.5t85 234.5q0 142-85 230t-215 88q-127 0-211-89.5t-84-229.5z"/><glyph unicode="b" horiz-adv-x="1352" d="M138 0v1508h271v-540q74 74 160 111t184 37q213 0 362-161t149-413q0-243-154-406.5t-365-163.5q-94 0-175 33.5t-161 109.5v-115h-271zm259 546q0-145 85-234.5t214-89.5q125 0 210.5 91t85.5 232q0 140-84 229.5t-212 89.5q-129 0-214-88t-85-230z"/><glyph unicode="c" horiz-adv-x="1311" d="M85 540q0 158 79 291t220.5 209 316.5 76q162 0 291-64.5t211-183.5l-227-125q-64 67-126.5 93t-146.5 26q-153 0-247.5-91.5t-94.5-234.5q0-139 91-227t239-88q183 0 285 125l215-147q-175-227-494-227-287 0-449.5 170t-162.5 398z"/><glyph unicode="d" horiz-adv-x="1352" d="M88 542q0 252 149 413t362 161q98 0 184-37t159-111v540h272v-1508h-272v115q-80-76-160.5-109.5t-174.5-33.5q-211 0-365 163.5t-154 406.5zm272 3q0-141 85.5-232t210.5-91q129 0 214 89.5t85 234.5q0 142-85 230t-215 88q-127 0-211-89.5t-84-229.5z"/><glyph unicode="e" horiz-adv-x="1311" d="M87 538q0 249 160.5 413.5t402.5 164.5q257 0 418-164.5t161-434.5l-1-52h-877q19-116 101.5-184.5t210.5-68.5q153 0 263 107l230-108q-86-122-206-180.5t-285-58.5q-256 0-417 161.5t-161 404.5zm276 142h591q-27 91-106.5 148t-184.5 57q-114 0-200-64-54-40-100-141z"/><glyph unicode="f" horiz-adv-x="573" d="M8 856v232h97q1 214 7 253 11 90 75.5 142.5t182.5 52.5q85 0 192-39v-208q-59 17-97 17-48 0-70-20-16-15-16-62l-1-136h173v-232h-173v-856h-273v856h-97z"/><glyph unicode="g" horiz-adv-x="1352" d="M90-80h301q40-46 103-69.5t149-23.5q110 0 177 34t94.5 88 27.5 186q-72-72-151-103.5t-179-31.5q-219 0-370 158t-151 400q0 259 160 416 145 142 346 142 94 0 177.5-34.5t167.5-113.5v120h272v-932q0-276-111-406-149-176-449-176-160 0-269 40t-184 117.5-111 188.5zm272 637q0-136 86-223t216-87q127 0 209.5 85t82.5 223q0 136-83 221t-214 85q-129 0-213-86.5t-84-217.5z"/><glyph unicode="h" d="M139 0v1508h271v-530q80 69 161 103.5t164 34.5q162 0 273-112 95-97 95-285v-719h-269v477q0 189-18 256t-61.5 100-107.5 33q-83 0-142.5-55t-82.5-150q-12-49-12-224v-437h-271z"/><glyph unicode="i" horiz-adv-x="491" d="M71 1362q0 72 51 123t123 51 123.5-52 51.5-126q0-73-51-124.5t-122-51.5q-73 0-124.5 52.5t-51.5 127.5zm37-1362v1088h274v-1088h-274z"/><glyph unicode="j" horiz-adv-x="532" d="M-87-170q64-31 113-31 52 0 78 31t26 114v1144h273v-1124q0-155-30.5-231.5t-96.5-117.5-159-41q-82 0-204 41v215zm180 1532q0 72 50.5 123t122.5 51q73 0 124.5-52t51.5-126q0-73-51-125t-122-52q-73 0-124.5 53t-51.5 128z"/><glyph unicode="k" horiz-adv-x="1188" d="M140 0v1508h273v-869l402 449h342l-468-522 525-566h-339l-462 501v-501h-273z"/><glyph unicode="l" horiz-adv-x="491" d="M109 0v1508h273v-1508h-273z"/><glyph unicode="m" horiz-adv-x="1925" d="M136 0v1088h274v-125q70 77 155.5 115t186.5 38q102 0 184-50t132-146q65 96 159.5 146t206.5 50q116 0 204-54t126.5-141 38.5-283v-638h-275v552q0 185-46 250.5t-138 65.5q-70 0-125.5-40t-82.5-110.5-27-226.5v-491h-275v527q0 146-21.5 211.5t-64.5 97.5-104 32q-68 0-123.5-40.5t-83-113.5-27.5-230v-484h-274z"/><glyph unicode="n" d="M138 0v1088h272v-111q93 78 168.5 108.5t154.5 30.5q162 0 275-113 95-96 95-284v-719h-270v477q0 195-17.5 259t-61 97.5-107.5 33.5q-83 0-142.5-55.5t-82.5-153.5q-12-51-12-221v-437h-272z"/><glyph unicode="o" horiz-adv-x="1311" d="M85 543q0 255 187 425 164 148 377 148 154 0 289.5-77t211.5-209 76-285q0-154-76.5-288t-208.5-209.5-291-75.5q-234 0-399.5 166.5t-165.5 404.5zm272 1q0-142 83.5-230t211.5-88 213 89 85 229-83.5 227.5-213.5 87.5q-127 0-211.5-88.5t-84.5-226.5z"/><glyph unicode="p" horiz-adv-x="1352" d="M138-398v1486h271v-120q74 74 160 111t184 37q213 0 362-161t149-413q0-243-154-406.5t-365-163.5q-94 0-175 33.5t-161 109.5v-513h-271zm259 944q0-145 85-234.5t214-89.5q125 0 210.5 91t85.5 232q0 140-84 229.5t-212 89.5q-129 0-214-88t-85-230z"/><glyph unicode="q" horiz-adv-x="1352" d="M88 542q0 252 149 413t362 161q98 0 184-37t159-111v120h272v-1486h-272v513q-80-76-160.5-109.5t-174.5-33.5q-211 0-365 163.5t-154 406.5zm272 3q0-141 85.5-232t210.5-91q129 0 214 89.5t85 234.5q0 142-85 230t-215 88q-127 0-211-89.5t-84-229.5z"/><glyph unicode="r" horiz-adv-x="655" d="M74 0v1088h234v-137q38 81 101 123t138 42q53 0 111-28l-85-235q-48 24-79 24-63 0-106.5-78t-43.5-306l1-53v-440h-271z"/><glyph unicode="s" horiz-adv-x="901" d="M52 158l168 183q48-56 112.5-90.5t114.5-34.5q54 0 87 26t33 60q0 63-119 123l-92 46q-264 133-264 333 0 129 99.5 220.5t254.5 91.5q106 0 199.5-46.5t158.5-133.5l-169-169q-103 102-187 102-46 0-72-19.5t-26-48.5q0-22 16.5-40.5t81.5-50.5l100-50q158-78 217-159t59-190q0-145-106.5-242t-285.5-97q-238 0-380 186z"/><glyph unicode="t" horiz-adv-x="614" d="M31 853v235h140v401h272v-401h162v-235h-162v-853h-272v853h-140z"/><glyph unicode="u" d="M137 635v453h276v-524q0-153 21-212.5t67.5-92.5 114.5-33 115.5 32.5 70.5 95.5q17 47 17 201v533h274v-461q0-285-45-390-55-128-162-196.5t-272-68.5q-179 0-289.5 80t-155.5 223q-32 99-32 360z"/><glyph unicode="v" horiz-adv-x="1147" d="M21 1088h278l275-642 274 642h277l-463-1088h-177z"/><glyph unicode="w" horiz-adv-x="1638" d="M17 1088h267l219-619 236 619h163l231-612 219 612h269l-397-1088h-173l-232 620-239-620h-171z"/><glyph unicode="x" horiz-adv-x="1147" d="M1 0l412 573-373 515h317l213-297 216 297h314l-372-515 418-573h-317l-259 357-256-357h-313z"/><glyph unicode="y" horiz-adv-x="1188" d="M17 1088h279l283-683 312 683h280l-682-1486h-282l224 479z"/><glyph unicode="z" horiz-adv-x="942" d="M16 0l492 857h-417v231h835l-490-857h462v-231h-882z"/><glyph unicode="{" horiz-adv-x="696" d="M13 390v240q89 4 131.5 35t65 97 22.5 223q0 198 18 270.5t57.5 116 116 71.5 220.5 28h53v-240q-107 0-140-11.5t-48.5-37.5-15.5-96q0-126-12-281-8-101-55-181-35-59-121-115 73-42 116-106.5t57-163.5q6-43 14-280 3-87 11-108 13-31 48.5-47t145.5-16v-239h-53q-145 0-215 23.5t-114 69-63.5 115-19.5 239.5q0 190-20.5 256.5t-64 99.5-134.5 38z"/><glyph unicode="|" d="M536-398v1906h158v-1906h-158z"/><glyph unicode="}" horiz-adv-x="696" d="M-1-212q107 0 139.5 11.5t48.5 37.5 16 96q0 127 12 282 7 101 54 180 36 60 122 115-73 42-116 106.5t-57 164.5q-6 42-14 279-3 88-12 108-13 32-48.5 47.5t-144.5 15.5v240h53q145 0 214.5-24t114-69.5 64-115 19.5-239.5q0-190 20.5-256t63.5-99 135-38v-240q-89-5-131.5-35.5t-65.5-97-23-223.5q0-198-17.5-270t-57-115.5-116-71.5-220.5-28h-53v239z"/><glyph unicode="~" d="M100 564v319q152 74 250 74 64 0 140.5-21.5t203.5-82.5q83-41 109-48 35-10 69-10 111 0 258 113v-322q-126-72-247-72-66 0-133 18t-218 85q-96 42-128.5 50.5t-65.5 8.5q-50 0-101-22t-137-90z"/><glyph unicode="¡" horiz-adv-x="573" d="M115 967q0 71 50 121t121 50 121.5-50 50.5-121-50.5-121-121.5-50-121 50-50 121zm34-1365v1075h275v-1075h-275z"/><glyph unicode="¢" horiz-adv-x="1147" d="M84 545q0 168 70 298t195 201.5 280 71.5q43 0 96-8l96 218 155-67-94-210q110-69 169-164l-223-132q-23 31-52 59l-255-577q55-21 107-21 125 0 221 98l175-170q-86-88-186-129t-229-41q-95 0-190 28l-111-243-153 66 120 264q-191 188-191 458zm271-5q0-98 38-183l226 513q-123-7-193.5-92t-70.5-238z"/><glyph unicode="£" horiz-adv-x="1147" d="M49 204q85 34 159 44 55 96 75 163t20 142q0 41-9 94h-240v252h154q-47 100-47 201 0 122 49.5 210.5t153.5 143 226 54.5q120 0 218.5-53t150.5-146.5 53-212.5h-281q-31 155-145 155-61 0-102-43.5t-41-113.5q0-41 28-114l31-81h340v-252h-267q12-69 12-109 0-115-68-283 39-5 139-23 34-6 55-6 43 0 71 26 38 34 52 84h259q-4-99-57-186.5t-142-137-186-49.5q-43 0-143 14-154 23-230 23-98 0-194-34z"/><glyph unicode="¤" d="M95 1214l121 124 106-106q70 49 144 73t152 24q75 0 146-22t145-72l105 103 119-124-104-101q53-72 75.5-142.5t22.5-152.5q0-81-22-149.5t-73-139.5l104-104-119-121-105 103q-73-53-144.5-76.5t-151.5-23.5q-79 0-150.5 23.5t-144.5 76.5l-105-103-120 121 103 104q-52 79-72 145t-20 144q0 83 21 151.5t73 140.5zm208-398q0-132 92.5-225t221.5-93 221 93.5 92 227.5q0 133-91.5 226.5t-220.5 93.5-222-94-93-229z"/><glyph unicode="¥" horiz-adv-x="1147" d="M48 1471h291l235-523 235 523h291l-311-692h264v-163h-338v-128h338v-169h-338v-319h-283v319h-339v169h339v128h-339v163h265z"/><glyph unicode="¦" d="M537-398v910l158 55v-965h-158zm0 1142v764h158v-709z"/><glyph unicode="§" horiz-adv-x="1147" d="M107 603q0 112 56.5 196.5t142.5 116.5q-69 56-103.5 125t-34.5 150q0 144 111 244.5t288 100.5q169 0 288-111t130-273h-265q-30 133-161 133-53 0-82-23.5t-29-57.5q0-36 23-65 31-38 145-116l191-131q129-88 178-171t49-183q0-105-55.5-186t-158.5-121q93-77 131.5-153t38.5-167q0-144-108.5-240.5t-297.5-96.5q-178 0-284.5 96.5t-131.5 281.5h259q27-70 65.5-99t92.5-29q61 0 95 30t34 71q0 25-20 54-21 28-89 76l-276 192q-129 91-175.5 171t-46.5 185zm235 40q0-47 42-96 23-28 123-98l153-107q81 38 101 65 31 41 31 86 0 38-30.5 78.5t-136.5 112.5l-162 112q-62-27-91.5-68t-29.5-85z"/><glyph unicode="¨" horiz-adv-x="1024" d="M147 1430q0 59 42 101t101 42q60 0 102-42t42-101q0-60-42-102t-102-42q-59 0-101 42t-42 102zm443 0q0 59 42 101t101 42q60 0 102-42t42-101q0-60-42-102t-102-42q-59 0-101 42t-42 102z"/><glyph unicode="©" horiz-adv-x="1515" d="M-8 757q0 204 102.5 381t280 279.5 383.5 102.5 383.5-102.5 280-279.5 102.5-381q0-205-102.5-382.5t-280.5-280-383-102.5-383 102.5-280.5 280-102.5 382.5zm158 1q0-161 81-300.5t222.5-220.5 303.5-81q163 0 305 81t223 219.5 81 297.5q0 253-177.5 430.5t-429.5 177.5q-164 0-305.5-81t-222.5-221.5-81-301.5zm211 12q0 196 119 318t304 122q149 0 245-75t127-218h-176q-17 74-68 114t-126 40q-111 0-183-80.5t-72-218.5q0-142 76.5-229.5t182.5-87.5q75 0 128 45t62 116h176q-17-131-118-216t-248-85q-188 0-308.5 126.5t-120.5 328.5z"/><glyph unicode="ª" horiz-adv-x="737" d="M47 1150q0 164 77 261t178 97q44 0 83-18.5t74-56.5v58h200v-681h-200v56q-33-36-71.5-54t-81.5-18q-100 0-179.5 98.5t-79.5 257.5zm201 2q0-85 37-139 29-41 72-41t76 46.5 33 133.5q0 86-33 131.5t-77 45.5q-43 0-75.5-46.5t-32.5-130.5z"/><glyph unicode="«" horiz-adv-x="942" d="M25 540l183 548h255l-185-548 185-540h-255zm453 0l184 548h255l-185-548 185-540h-255z"/><glyph unicode="¬" d="M115 824v250h999v-678l-249 1v428z"/><glyph unicode="­" horiz-adv-x="860" d="M176 415v254h508v-254h-508z"/><glyph unicode="®" horiz-adv-x="1515" d="M-8 756q0 205 102.5 382t280 279.5 383.5 102.5 383.5-102.5 280-279.5 102.5-383q0-205-102.5-381.5t-280-279-383.5-102.5q-205 0-383 102.5t-280.5 279-102.5 382.5zm158 2q0-162 80.5-301t222.5-220 305-81q162 0 304 80.5t223 219 81 297.5q0 254-177.5 431.5t-428.5 177.5q-253 0-431.5-177t-178.5-427zm291-424v839h371q117 0 172-26t88.5-82 33.5-135q0-67-20.5-109.5t-77.5-83.5q46-26 63-58.5t21-114.5q7-156 13.5-181.5t35.5-48.5h-210q-14 34-18 57t-5 79q-3 111-12 137t-31.5 39-90.5 13h-149v-325h-184zm184 479h154q89 0 118 24t29 77-28.5 75.5-117.5 22.5h-155v-199z"/><glyph unicode="¯" horiz-adv-x="1024" d="M-12 1583v102h1048v-102h-1048z"/><glyph unicode="°" horiz-adv-x="819" d="M65 1167q0 141 102.5 241t244.5 100 242.5-100 100.5-244q0-145-101-244.5t-245-99.5-244 100-100 247zm119-3q0-94 67.5-163t160.5-69q92 0 158 67.5t66 162.5q0 99-65 166t-158 67q-95 0-162-67.5t-67-163.5z"/><glyph unicode="±" horiz-adv-x="1124" d="M62 0v250h999v-250h-999zm0 829v250h375v375h250v-375h374v-250h-374v-374h-250v374h-375z"/><glyph unicode="²" horiz-adv-x="688" d="M19 733v88l272 232q97 83 127 130t30 84q0 36-28.5 59.5t-77.5 23.5q-52 0-83-32t-32-91h-185q6 132 88.5 206.5t222.5 74.5q139 0 211.5-74t72.5-156q0-67-44-144t-164-182l-70-62h285v-157h-625z"/><glyph unicode="³" horiz-adv-x="688" d="M30 981h184q19-111 126-111 55 0 90 27.5t35 63.5q0 99-197 105v138q88 0 121 22.5t33 59.5q0 28-20.5 47.5t-54.5 19.5q-67 0-103-71h-183q23 108 79 157 78 69 202 69 117 0 190.5-60.5t73.5-140.5q0-96-93-149 66-27 103.5-79.5t37.5-112.5q0-101-88-176t-234-75q-136 0-217.5 73t-84.5 193z"/><glyph unicode="´" horiz-adv-x="860" d="M239 1287l239 392h323l-366-392h-196z"/><glyph unicode="µ" horiz-adv-x="1180" d="M88-398v1486h277v-571q0-127 24.5-183.5t81-93.5 121.5-37 115.5 34 77 98 26.5 190v563h280v-1088h-280v127q-43-84-98.5-120t-124.5-36q-68 0-123.5 34.5t-99.5 113.5v-517h-277z"/><glyph unicode="¶" d="M163 1104q0 203 111.5 306t361.5 103h420v-116h-82v-1776h-139v1776h-144v-1776h-139v1089q-184 1-286.5 105t-102.5 289z"/><glyph unicode="·" horiz-adv-x="682" d="M553 754q0 60 42 101.5t101 41.5q60 0 102-41.5t42-101.5q0-59-42-101t-102-42q-59 0-101 42t-42 101z"/><glyph unicode="¸" horiz-adv-x="696" d="M84-335l36 129q72-23 141-23 51 0 76 19.5t25 51.5q0 26-19 41t-60 15l-56-2 35 120h169l-12-46q67-15 105.5-58.5t38.5-95.5q0-81-68-139t-189-58q-98 0-222 46z"/><glyph unicode="¹" horiz-adv-x="688" d="M83 1332l116 157h265v-756h-188v599h-193z"/><glyph unicode="º" horiz-adv-x="737" d="M45 1150q0 152 96 255t224 103q134 0 231-102t97-255q0-154-95.5-255.5t-231.5-101.5q-131 0-226 102.5t-95 253.5zm202 1q0-84 35.5-130.5t85.5-46.5 86.5 47 36.5 130q0 82-36 128.5t-87 46.5q-49 0-85-47t-36-128z"/><glyph unicode="»" horiz-adv-x="942" d="M25 0l185 548-185 540h255l183-540-183-548h-255zm453 0l186 548-186 540h255l184-540-184-548h-255z"/><glyph unicode="¼" horiz-adv-x="1720" d="M91 1332l116 157h265v-756h-188v599h-193zm371-1369l626 1545h171l-626-1545h-171zm580 187v148l382 477h182v-485h78v-140h-78v-150h-169v150h-395zm178 140h217v269z"/><glyph unicode="½" horiz-adv-x="1720" d="M91 1332l116 157h265v-756h-188v599h-193zm335-1369l626 1545h171l-626-1545h-171zm617 37v88l272 232q97 83 127 130t30 84q0 36-28.5 59.5t-77.5 23.5q-52 0-83-32t-32-91h-185q6 132 88.5 206.5t222.5 74.5q139 0 211.5-74t72.5-156q0-67-44-144t-164-182l-70-62h285v-157h-625z"/><glyph unicode="¾" horiz-adv-x="1720" d="M38 981h184q19-111 126-111 55 0 90 27.5t35 63.5q0 99-197 105v138q88 0 121 22.5t33 59.5q0 28-20.5 47.5t-54.5 19.5q-67 0-103-71h-183q23 108 79 157 78 69 202 69 117 0 190.5-60.5t73.5-140.5q0-96-93-149 66-27 103.5-79.5t37.5-112.5q0-101-88-176t-234-75q-136 0-217.5 73t-84.5 193zm448-1018l626 1545h171l-626-1545h-171zm556 187v148l382 477h182v-485h78v-140h-78v-150h-169v150h-395zm178 140h217v269z"/><glyph unicode="¿" horiz-adv-x="1147" d="M98-18q0 59 18.5 116t59.5 117q25 35 116 118 86 79 108.5 111t37.5 86.5 19 150.5h270l2-45q0-134-49-243.5t-159-205.5q-106-93-128-128.5t-22-81.5q0-64 53-108.5t144-44.5q92 0 151 54.5t60 139.5h262q2-192-132-318t-353-126q-141 0-240.5 51.5t-158.5 150-59 206.5zm314 984q0 71 51 121.5t123 50.5q71 0 122-50.5t51-121.5-50-121-121-50q-73 0-124.5 50t-51.5 121z"/><glyph unicode="À" horiz-adv-x="1515" d="M49 0l567 1471h284l566-1471h-291l-115 303h-600l-120-303h-291zm337 1977h323l239-392h-196zm178-1401h391l-195 505z"/><glyph unicode="Á" horiz-adv-x="1515" d="M49 0l567 1471h284l566-1471h-291l-115 303h-600l-120-303h-291zm515 576h391l-195 505zm2 1009l239 392h323l-366-392h-196z"/><glyph unicode="Â" horiz-adv-x="1515" d="M49 0l567 1471h284l566-1471h-291l-115 303h-600l-120-303h-291zm300 1585l300 283h219l298-283h-298l-108 131-111-131h-300zm215-1009h391l-195 505z"/><glyph unicode="Ã" horiz-adv-x="1515" d="M49 0l567 1471h284l566-1471h-291l-115 303h-600l-120-303h-291zm292 1754q128 99 259 99 49 0 168-34 81-22 129-22 84 0 174 52l104-156q-126-108-244-108-63 0-151 27-72 21-91 25-26 4-62 4-88 0-176-52zm223-1178h391l-195 505z"/><glyph unicode="Ä" horiz-adv-x="1515" d="M49 0l567 1471h284l566-1471h-291l-115 303h-600l-120-303h-291zm343 1728q0 59 42 101t101 42q60 0 102-42t42-101q0-60-42-102t-102-42q-59 0-101 42t-42 102zm172-1152h391l-195 505zm271 1152q0 59 42 101t101 42q60 0 102-42t42-101q0-60-42-102t-102-42q-59 0-101 42t-42 102z"/><glyph unicode="Å" horiz-adv-x="1515" d="M49 0l567 1471h284l566-1471h-291l-115 303h-600l-120-303h-291zm489 1809q0 92 64 157.5t155 65.5 155-65.5 64-157.5q0-93-64.5-158.5t-154.5-65.5-154.5 65.5-64.5 158.5zm26-1233h391l-195 505zm111 1238q0-38 24.5-64t57.5-26 57.5 26 24.5 64q0 37-24 63t-58 26-58-26-24-63z"/><glyph unicode="Æ" horiz-adv-x="1843" d="M57 0l717 1471h963v-274h-517v-267h517v-269h-517v-387h517v-274h-796v304h-449l-147-304h-288zm567 579h317v644z"/><glyph unicode="Ç" horiz-adv-x="1597" d="M95 738q0 220 99.5 391t285 275 399.5 104q182 0 350.5-77t290.5-219l-196-187q-200 211-450 211-211 0-355.5-144t-144.5-355q0-147 64-261t181-179 260-65q122 0 223 45.5t222 165.5l190-198q-163-159-308-220.5t-331-61.5q-343 0-561.5 217.5t-218.5 557.5zm440-1073l36 129q72-23 141-23 51 0 76 19.5t25 51.5q0 26-19 41t-60 15l-56-2 35 120h169l-12-46q67-15 105.5-58.5t38.5-95.5q0-81-68-139t-189-58q-98 0-222 46z"/><glyph unicode="È" horiz-adv-x="1065" d="M169 0v1471h803v-274h-525v-266h525v-269h-525v-387h525v-275h-803zm28 1977h323l239-392h-196z"/><glyph unicode="É" horiz-adv-x="1065" d="M169 0v1471h803v-274h-525v-266h525v-269h-525v-387h525v-275h-803zm209 1585l239 392h323l-366-392h-196z"/><glyph unicode="Ê" horiz-adv-x="1065" d="M160 1585l300 283h219l298-283h-298l-108 131-111-131h-300zm9-1585v1471h803v-274h-525v-266h525v-269h-525v-387h525v-275h-803z"/><glyph unicode="Ë" horiz-adv-x="1065" d="M169 0v1471h803v-274h-525v-266h525v-269h-525v-387h525v-275h-803zm35 1728q0 59 42 101t101 42q60 0 102-42t42-101q0-60-42-102t-102-42q-59 0-101 42t-42 102zm443 0q0 59 42 101t101 42q60 0 102-42t42-101q0-60-42-102t-102-42q-59 0-101 42t-42 102z"/><glyph unicode="Ì" horiz-adv-x="573" d="M-84 1977h323l239-392h-196zm232-1977v1471h278v-1471h-278z"/><glyph unicode="Í" horiz-adv-x="573" d="M96 1585l239 392h323l-366-392h-196zm52-1585v1471h278v-1471h-278z"/><glyph unicode="Î" horiz-adv-x="573" d="M-122 1585l300 283h219l298-283h-298l-108 131-111-131h-300zm270-1585v1471h278v-1471h-278z"/><glyph unicode="Ï" horiz-adv-x="573" d="M-78 1728q0 59 42 101t101 42q60 0 102-42t42-101q0-60-42-102t-102-42q-59 0-101 42t-42 102zm226-1728v1471h278v-1471h-278zm217 1728q0 59 42 101t101 42q60 0 102-42t42-101q0-60-42-102t-102-42q-59 0-101 42t-42 102z"/><glyph unicode="Ð" horiz-adv-x="1520" d="M50 654v163h169v654h357q320 0 476-79.5t257-258.5 101-418q0-170-56.5-312.5t-156-236.5-215.5-130-402-36h-361v654h-169zm448-380h154q192 0 278.5 44t141.5 148 55 256q0 234-131 363-118 116-379 116h-119v-384h302v-163h-302v-380z"/><glyph unicode="Ñ" horiz-adv-x="1515" d="M169 0v1471h268l631-968v968h280v-1471h-269l-630 965v-965h-280zm173 1754q128 99 259 99 49 0 168-34 81-22 129-22 84 0 174 52l104-156q-126-108-244-108-63 0-151 27-72 21-91 25-26 4-62 4-88 0-176-52z"/><glyph unicode="Ò" horiz-adv-x="1720" d="M96 736q0 211 102 388t280.5 280.5 384.5 103.5q312 0 536.5-226t224.5-551q0-322-221.5-545t-537.5-223q-331 0-550 229t-219 544zm282-5q0-244 175-386 136-111 312-111 199 0 339 144t140 355q0 210-141 355.5t-343 145.5q-204 0-343-142t-139-361zm111 1246h323l239-392h-196z"/><glyph unicode="Ó" horiz-adv-x="1720" d="M96 736q0 211 102 388t280.5 280.5 384.5 103.5q312 0 536.5-226t224.5-551q0-322-221.5-545t-537.5-223q-331 0-550 229t-219 544zm282-5q0-244 175-386 136-111 312-111 199 0 339 144t140 355q0 210-141 355.5t-343 145.5q-204 0-343-142t-139-361zm291 854l239 392h323l-366-392h-196z"/><glyph unicode="Ô" horiz-adv-x="1720" d="M96 736q0 211 102 388t280.5 280.5 384.5 103.5q312 0 536.5-226t224.5-551q0-322-221.5-545t-537.5-223q-331 0-550 229t-219 544zm282-5q0-244 175-386 136-111 312-111 199 0 339 144t140 355q0 210-141 355.5t-343 145.5q-204 0-343-142t-139-361zm73 854l300 283h219l298-283h-298l-108 131-111-131h-300z"/><glyph unicode="Õ" horiz-adv-x="1720" d="M96 736q0 211 102 388t280.5 280.5 384.5 103.5q312 0 536.5-226t224.5-551q0-322-221.5-545t-537.5-223q-331 0-550 229t-219 544zm282-5q0-244 175-386 136-111 312-111 199 0 339 144t140 355q0 210-141 355.5t-343 145.5q-204 0-343-142t-139-361zm65 1023q128 99 259 99 49 0 168-34 81-22 129-22 84 0 174 52l104-156q-126-108-244-108-63 0-151 27-72 21-91 25-26 4-62 4-88 0-176-52z"/><glyph unicode="Ö" horiz-adv-x="1720" d="M96 736q0 211 102 388t280.5 280.5 384.5 103.5q312 0 536.5-226t224.5-551q0-322-221.5-545t-537.5-223q-331 0-550 229t-219 544zm282-5q0-244 175-386 136-111 312-111 199 0 339 144t140 355q0 210-141 355.5t-343 145.5q-204 0-343-142t-139-361zm117 997q0 59 42 101t101 42q60 0 102-42t42-101q0-60-42-102t-102-42q-59 0-101 42t-42 102zm443 0q0 59 42 101t101 42q60 0 102-42t42-101q0-60-42-102t-102-42q-59 0-101 42t-42 102z"/><glyph unicode="×" d="M148 419l317 317-317 317 148 148 317-317 316 317 148-148-317-317 317-317-148-147-316 316-317-316z"/><glyph unicode="Ø" horiz-adv-x="1720" d="M97 736q0 211 102 387.5t280.5 280.5 383.5 104q238 0 443-145l161 190 126-104-164-198q196-219 196-520 0-322-221.5-545t-536.5-223q-239 0-426 125l-171-202-127 106 171 202q-103 105-160 246t-57 296zm282-5q0-194 114-326l636 749q-113 80-267 80-205 0-344-142t-139-361zm241-431q112-66 247-66 198 0 338 144t140 355q0 169-100 305z"/><glyph unicode="Ù" horiz-adv-x="1311" d="M158 594v877h281v-952q0-123 21.5-174t71-81.5 119.5-30.5q74 0 127.5 34t74 86.5 20.5 200.5v917h281v-877q0-222-25-308t-95.5-166-162.5-118.5-214-38.5q-160 0-278.5 73.5t-169.5 184-51 373.5zm126 1383h323l239-392h-196z"/><glyph unicode="Ú" horiz-adv-x="1311" d="M158 594v877h281v-952q0-123 21.5-174t71-81.5 119.5-30.5q74 0 127.5 34t74 86.5 20.5 200.5v917h281v-877q0-222-25-308t-95.5-166-162.5-118.5-214-38.5q-160 0-278.5 73.5t-169.5 184-51 373.5zm306 991l239 392h323l-366-392h-196z"/><glyph unicode="Û" horiz-adv-x="1311" d="M158 594v877h281v-952q0-123 21.5-174t71-81.5 119.5-30.5q74 0 127.5 34t74 86.5 20.5 200.5v917h281v-877q0-222-25-308t-95.5-166-162.5-118.5-214-38.5q-160 0-278.5 73.5t-169.5 184-51 373.5zm89 991l300 283h219l298-283h-298l-108 131-111-131h-300z"/><glyph unicode="Ü" horiz-adv-x="1311" d="M158 594v877h281v-952q0-123 21.5-174t71-81.5 119.5-30.5q74 0 127.5 34t74 86.5 20.5 200.5v917h281v-877q0-222-25-308t-95.5-166-162.5-118.5-214-38.5q-160 0-278.5 73.5t-169.5 184-51 373.5zm133 1134q0 59 42 101t101 42q60 0 102-42t42-101q0-60-42-102t-102-42q-59 0-101 42t-42 102zm443 0q0 59 42 101t101 42q60 0 102-42t42-101q0-60-42-102t-102-42q-59 0-101 42t-42 102z"/><glyph unicode="Ý" horiz-adv-x="1270" d="M63 1471h301l274-528 272 528h297l-430-834v-637h-282v637zm381 114l239 392h323l-366-392h-196z"/><glyph unicode="Þ" horiz-adv-x="1147" d="M167 0v1471h280v-312q256 0 362.5-43.5t169-143 62.5-239.5q0-155-80.5-256.5t-218.5-141.5q-81-24-295-24v-311h-280zm280 584h89q105 0 146 15t64.5 50 23.5 84q0 84-66 124-48 29-178 29h-79v-302z"/><glyph unicode="ß" d="M137 0v895q0 244 58 369t176.5 198.5 275.5 73.5q192 0 311.5-109.5t119.5-264.5q0-85-37-156t-100.5-114.5-172.5-62.5q120-21 202.5-80t126.5-144.5 44-193.5q0-125-56.5-226t-158.5-157-228-56q-85 0-168 34v255q63-33 127-33 91 0 152.5 64.5t61.5 155.5q0 72-35.5 129.5t-96.5 90.5-160 37v244q103 0 163 48.5t60 126.5q0 67-47 113t-117 46q-66 0-122.5-41t-81-110-24.5-237v-895h-273z"/><glyph unicode="à" horiz-adv-x="1352" d="M88 542q0 252 149 413t362 161q98 0 184-37t159-111v120h272v-1088h-272v115q-80-76-160.5-109.5t-174.5-33.5q-211 0-365 163.5t-154 406.5zm217 1137h323l239-392h-196zm55-1134q0-141 85.5-232t210.5-91q129 0 214 89.5t85 234.5q0 142-85 230t-215 88q-127 0-211-89.5t-84-229.5z"/><glyph unicode="á" horiz-adv-x="1352" d="M88 542q0 252 149 413t362 161q98 0 184-37t159-111v120h272v-1088h-272v115q-80-76-160.5-109.5t-174.5-33.5q-211 0-365 163.5t-154 406.5zm272 3q0-141 85.5-232t210.5-91q129 0 214 89.5t85 234.5q0 142-85 230t-215 88q-127 0-211-89.5t-84-229.5zm125 742l239 392h323l-366-392h-196z"/><glyph unicode="â" horiz-adv-x="1352" d="M88 542q0 252 149 413t362 161q98 0 184-37t159-111v120h272v-1088h-272v115q-80-76-160.5-109.5t-174.5-33.5q-211 0-365 163.5t-154 406.5zm179 745l300 283h219l298-283h-298l-108 131-111-131h-300zm93-742q0-141 85.5-232t210.5-91q129 0 214 89.5t85 234.5q0 142-85 230t-215 88q-127 0-211-89.5t-84-229.5z"/><glyph unicode="ã" horiz-adv-x="1352" d="M88 542q0 252 149 413t362 161q98 0 184-37t159-111v120h272v-1088h-272v115q-80-76-160.5-109.5t-174.5-33.5q-211 0-365 163.5t-154 406.5zm171 914q128 99 259 99 49 0 168-34 81-22 129-22 84 0 174 52l104-156q-126-108-244-108-63 0-151 27-72 21-91 25-26 4-62 4-88 0-176-52zm101-911q0-141 85.5-232t210.5-91q129 0 214 89.5t85 234.5q0 142-85 230t-215 88q-127 0-211-89.5t-84-229.5z"/><glyph unicode="ä" horiz-adv-x="1352" d="M88 542q0 252 149 413t362 161q98 0 184-37t159-111v120h272v-1088h-272v115q-80-76-160.5-109.5t-174.5-33.5q-211 0-365 163.5t-154 406.5zm223 888q0 59 42 101t101 42q60 0 102-42t42-101q0-60-42-102t-102-42q-59 0-101 42t-42 102zm49-885q0-141 85.5-232t210.5-91q129 0 214 89.5t85 234.5q0 142-85 230t-215 88q-127 0-211-89.5t-84-229.5zm394 885q0 59 42 101t101 42q60 0 102-42t42-101q0-60-42-102t-102-42q-59 0-101 42t-42 102z"/><glyph unicode="å" horiz-adv-x="1352" d="M88 542q0 252 149 413t362 161q98 0 184-37t159-111v120h272v-1088h-272v115q-80-76-160.5-109.5t-174.5-33.5q-211 0-365 163.5t-154 406.5zm272 3q0-141 85.5-232t210.5-91q129 0 214 89.5t85 234.5q0 142-85 230t-215 88q-127 0-211-89.5t-84-229.5zm97 966q0 92 64 157.5t155 65.5 155-65.5 64-157.5q0-93-64.5-158.5t-154.5-65.5-154.5 65.5-64.5 158.5zm137 5q0-38 24.5-64t57.5-26 57.5 26 24.5 64q0 37-24 63t-58 26-58-26-24-63z"/><glyph unicode="æ" horiz-adv-x="2212" d="M89 541q0 241 159.5 408t380.5 167q121 0 224-53 71-36 139-117v142h251v-80q136 108 322 108 158 0 291-76.5t205.5-211.5 72.5-303l-2-62h-876q24-119 106-186.5t212-67.5q75 0 134.5 25t121.5 85l230-108q-54-79-125-130t-163-80-200-29q-200 0-329 106v-78h-251v138q-79-89-164-127.5t-196-38.5q-231 0-387 162t-156 407zm278 1q0-139 88.5-230t224.5-91q141 0 227.5 90t86.5 239q0 138-88.5 228t-222.5 90q-135 0-225.5-92.5t-90.5-233.5zm902 134h591q-25 93-101.5 150t-184.5 57q-110 0-189-53t-116-154z"/><glyph unicode="ç" horiz-adv-x="1311" d="M85 540q0 158 79 291t220.5 209 316.5 76q162 0 291-64.5t211-183.5l-227-125q-64 67-126.5 93t-146.5 26q-153 0-247.5-91.5t-94.5-234.5q0-139 91-227t239-88q183 0 285 125l215-147q-175-227-494-227-287 0-449.5 170t-162.5 398zm307-875l36 129q72-23 141-23 51 0 76 19.5t25 51.5q0 26-19 41t-60 15l-56-2 35 120h169l-12-46q67-15 105.5-58.5t38.5-95.5q0-81-68-139t-189-58q-98 0-222 46z"/><glyph unicode="è" horiz-adv-x="1311" d="M87 538q0 249 160.5 413.5t402.5 164.5q257 0 418-164.5t161-434.5l-1-52h-877q19-116 101.5-184.5t210.5-68.5q153 0 263 107l230-108q-86-122-206-180.5t-285-58.5q-256 0-417 161.5t-161 404.5zm197 1141h323l239-392h-196zm79-999h591q-27 91-106.5 148t-184.5 57q-114 0-200-64-54-40-100-141z"/><glyph unicode="é" horiz-adv-x="1311" d="M87 538q0 249 160.5 413.5t402.5 164.5q257 0 418-164.5t161-434.5l-1-52h-877q19-116 101.5-184.5t210.5-68.5q153 0 263 107l230-108q-86-122-206-180.5t-285-58.5q-256 0-417 161.5t-161 404.5zm276 142h591q-27 91-106.5 148t-184.5 57q-114 0-200-64-54-40-100-141zm101 607l239 392h323l-366-392h-196z"/><glyph unicode="ê" horiz-adv-x="1311" d="M87 538q0 249 160.5 413.5t402.5 164.5q257 0 418-164.5t161-434.5l-1-52h-877q19-116 101.5-184.5t210.5-68.5q153 0 263 107l230-108q-86-122-206-180.5t-285-58.5q-256 0-417 161.5t-161 404.5zm160 749l300 283h219l298-283h-298l-108 131-111-131h-300zm116-607h591q-27 91-106.5 148t-184.5 57q-114 0-200-64-54-40-100-141z"/><glyph unicode="ë" horiz-adv-x="1311" d="M87 538q0 249 160.5 413.5t402.5 164.5q257 0 418-164.5t161-434.5l-1-52h-877q19-116 101.5-184.5t210.5-68.5q153 0 263 107l230-108q-86-122-206-180.5t-285-58.5q-256 0-417 161.5t-161 404.5zm204 892q0 59 42 101t101 42q60 0 102-42t42-101q0-60-42-102t-102-42q-59 0-101 42t-42 102zm72-750h591q-27 91-106.5 148t-184.5 57q-114 0-200-64-54-40-100-141zm371 750q0 59 42 101t101 42q60 0 102-42t42-101q0-60-42-102t-102-42q-59 0-101 42t-42 102z"/><glyph unicode="ì" horiz-adv-x="491" d="M-125 1679h323l239-392h-196zm233-1679v1088h274v-1088h-274z"/><glyph unicode="í" horiz-adv-x="491" d="M55 1287l239 392h323l-366-392h-196zm53-1287v1088h274v-1088h-274z"/><glyph unicode="î" horiz-adv-x="491" d="M-163 1287l300 283h219l298-283h-298l-108 131-111-131h-300zm271-1287v1088h274v-1088h-274z"/><glyph unicode="ï" horiz-adv-x="491" d="M-119 1430q0 59 42 101t101 42q60 0 102-42t42-101q0-60-42-102t-102-42q-59 0-101 42t-42 102zm227-1430v1088h274v-1088h-274zm216 1430q0 59 42 101t101 42q60 0 102-42t42-101q0-60-42-102t-102-42q-59 0-101 42t-42 102z"/><glyph unicode="ð" horiz-adv-x="1311" d="M87 544q0 252 186 425 158 147 352 147 63 0 128-28-27 64-104 159l-265-82-51 159 192 61q-96 89-141 123h265l82-60 199 60 50-157-104-34q172-159 264-351t92-384q0-267-166.5-438.5t-412.5-171.5q-235 0-400.5 167t-165.5 405zm273 0q0-142 82.5-230t210.5-88q129 0 215 89t86 228q0 138-84 226.5t-213 88.5-213-87-84-227z"/><glyph unicode="ñ" d="M138 0v1088h272v-111q93 78 168.5 108.5t154.5 30.5q162 0 275-113 95-96 95-284v-719h-270v477q0 195-17.5 259t-61 97.5-107.5 33.5q-83 0-142.5-55.5t-82.5-153.5q-12-51-12-221v-437h-272zm60 1456q128 99 259 99 49 0 168-34 81-22 129-22 84 0 174 52l104-156q-126-108-244-108-63 0-151 27-72 21-91 25-26 4-62 4-88 0-176-52z"/><glyph unicode="ò" horiz-adv-x="1311" d="M85 543q0 255 187 425 164 148 377 148 154 0 289.5-77t211.5-209 76-285q0-154-76.5-288t-208.5-209.5-291-75.5q-234 0-399.5 166.5t-165.5 404.5zm199 1136h323l239-392h-196zm73-1135q0-142 83.5-230t211.5-88 213 89 85 229-83.5 227.5-213.5 87.5q-127 0-211.5-88.5t-84.5-226.5z"/><glyph unicode="ó" horiz-adv-x="1311" d="M85 543q0 255 187 425 164 148 377 148 154 0 289.5-77t211.5-209 76-285q0-154-76.5-288t-208.5-209.5-291-75.5q-234 0-399.5 166.5t-165.5 404.5zm272 1q0-142 83.5-230t211.5-88 213 89 85 229-83.5 227.5-213.5 87.5q-127 0-211.5-88.5t-84.5-226.5zm107 743l239 392h323l-366-392h-196z"/><glyph unicode="ô" horiz-adv-x="1311" d="M85 543q0 255 187 425 164 148 377 148 154 0 289.5-77t211.5-209 76-285q0-154-76.5-288t-208.5-209.5-291-75.5q-234 0-399.5 166.5t-165.5 404.5zm162 744l300 283h219l298-283h-298l-108 131-111-131h-300zm110-743q0-142 83.5-230t211.5-88 213 89 85 229-83.5 227.5-213.5 87.5q-127 0-211.5-88.5t-84.5-226.5z"/><glyph unicode="õ" horiz-adv-x="1311" d="M85 543q0 255 187 425 164 148 377 148 154 0 289.5-77t211.5-209 76-285q0-154-76.5-288t-208.5-209.5-291-75.5q-234 0-399.5 166.5t-165.5 404.5zm154 913q128 99 259 99 49 0 168-34 81-22 129-22 84 0 174 52l104-156q-126-108-244-108-63 0-151 27-72 21-91 25-26 4-62 4-88 0-176-52zm118-912q0-142 83.5-230t211.5-88 213 89 85 229-83.5 227.5-213.5 87.5q-127 0-211.5-88.5t-84.5-226.5z"/><glyph unicode="ö" horiz-adv-x="1311" d="M85 543q0 255 187 425 164 148 377 148 154 0 289.5-77t211.5-209 76-285q0-154-76.5-288t-208.5-209.5-291-75.5q-234 0-399.5 166.5t-165.5 404.5zm205 887q0 59 42 101t101 42q60 0 102-42t42-101q0-60-42-102t-102-42q-59 0-101 42t-42 102zm67-886q0-142 83.5-230t211.5-88 213 89 85 229-83.5 227.5-213.5 87.5q-127 0-211.5-88.5t-84.5-226.5zm376 886q0 59 42 101t101 42q60 0 102-42t42-101q0-60-42-102t-102-42q-59 0-101 42t-42 102z"/><glyph unicode="÷" horiz-adv-x="1124" d="M62 610v250h999v-250h-999zm339-465v321h322v-321h-322zm0 860v321h322v-321h-322z"/><glyph unicode="ø" horiz-adv-x="1352" d="M106 543q0 254 186 423 164 150 379 150 178 0 331-103l126 140 123-110-128-143q124-160 124-355 0-154-76.5-288t-208.5-209.5-290-75.5q-168 0-303 88l-130-145-125 107 130 146q-138 159-138 375zm272 1q0-94 45-177l406 453q-68 39-154 39-127 0-212-88.5t-85-226.5zm166-289q63-29 131-29 126 0 211 89t85 229q0 82-32 152z"/><glyph unicode="ù" d="M137 635v453h276v-524q0-153 21-212.5t67.5-92.5 114.5-33 115.5 32.5 70.5 95.5q17 47 17 201v533h274v-461q0-285-45-390-55-128-162-196.5t-272-68.5q-179 0-289.5 80t-155.5 223q-32 99-32 360zm107 1044h323l239-392h-196z"/><glyph unicode="ú" d="M137 635v453h276v-524q0-153 21-212.5t67.5-92.5 114.5-33 115.5 32.5 70.5 95.5q17 47 17 201v533h274v-461q0-285-45-390-55-128-162-196.5t-272-68.5q-179 0-289.5 80t-155.5 223q-32 99-32 360zm287 652l239 392h323l-366-392h-196z"/><glyph unicode="û" d="M137 635v453h276v-524q0-153 21-212.5t67.5-92.5 114.5-33 115.5 32.5 70.5 95.5q17 47 17 201v533h274v-461q0-285-45-390-55-128-162-196.5t-272-68.5q-179 0-289.5 80t-155.5 223q-32 99-32 360zm69 652l300 283h219l298-283h-298l-108 131-111-131h-300z"/><glyph unicode="ü" d="M137 635v453h276v-524q0-153 21-212.5t67.5-92.5 114.5-33 115.5 32.5 70.5 95.5q17 47 17 201v533h274v-461q0-285-45-390-55-128-162-196.5t-272-68.5q-179 0-289.5 80t-155.5 223q-32 99-32 360zm113 795q0 59 42 101t101 42q60 0 102-42t42-101q0-60-42-102t-102-42q-59 0-101 42t-42 102zm443 0q0 59 42 101t101 42q60 0 102-42t42-101q0-60-42-102t-102-42q-59 0-101 42t-42 102z"/><glyph unicode="ý" horiz-adv-x="1188" d="M17 1088h279l283-683 312 683h280l-682-1486h-282l224 479zm385 199l239 392h323l-366-392h-196z"/><glyph unicode="þ" horiz-adv-x="1352" d="M138-398v1906h271v-540q74 74 160 111t184 37q213 0 362-161t149-413q0-243-154-406.5t-365-163.5q-94 0-175 33.5t-161 109.5v-513h-271zm259 944q0-145 85-234.5t214-89.5q125 0 210.5 91t85.5 232q0 140-84 229.5t-212 89.5q-129 0-214-88t-85-230z"/><glyph unicode="ÿ" horiz-adv-x="1188" d="M17 1088h279l283-683 312 683h280l-682-1486h-282l224 479zm212 342q0 59 42 101t101 42q60 0 102-42t42-101q0-60-42-102t-102-42q-59 0-101 42t-42 102zm443 0q0 59 42 101t101 42q60 0 102-42t42-101q0-60-42-102t-102-42q-59 0-101 42t-42 102z"/><glyph unicode="Œ" horiz-adv-x="2171" d="M94 733q0 214 98.5 392t274 280.5 375.5 102.5q125 0 240-40.5t223-127.5v131h777v-275h-494v-267h494v-268h-494v-387h494v-274h-777v135q-100-89-213.5-130.5t-251.5-41.5q-210 0-379 98t-268 277.5-99 394.5zm283 3q0-147 62-261t174-179 242-65q188 0 318.5 140t130.5 356q0 145-61.5 262t-172.5 183.5-235 66.5q-186 0-322-144.5t-136-358.5z"/><glyph unicode="œ" horiz-adv-x="2212" d="M82 546q0 233 170.5 401.5t410.5 168.5q92 0 178.5-26t158.5-75q54-36 110-110 172 211 450 211 172 0 303-79t200.5-217.5 67.5-358.5h-881q17-114 101.5-183.5t213.5-69.5q141 0 254 102l237-108q-94-117-215.5-173.5t-278.5-56.5q-293 0-452 208-84-104-196-156t-251-52q-247 0-414 166.5t-167 407.5zm273-4q0-91 39.5-167t108-116.5 156.5-40.5q136 0 223.5 90.5t87.5 237.5q0 138-88.5 230.5t-215.5 92.5q-88 0-159-41.5t-111.5-117.5-40.5-168zm904 133h601q-31 99-109.5 152.5t-187.5 53.5q-110 0-193.5-57t-110.5-149z"/><glyph unicode="Ÿ" horiz-adv-x="1270" d="M63 1471h301l274-528 272 528h297l-430-834v-637h-282v637zm217 257q0 59 42 101t101 42q60 0 102-42t42-101q0-60-42-102t-102-42q-59 0-101 42t-42 102zm443 0q0 59 42 101t101 42q60 0 102-42t42-101q0-60-42-102t-102-42q-59 0-101 42t-42 102z"/><glyph unicode="ˆ" horiz-adv-x="1106" d="M144 1287l300 283h219l298-283h-298l-108 131-111-131h-300z"/><glyph unicode="˜" horiz-adv-x="983" d="M75 1456q128 99 259 99 49 0 168-34 81-22 129-22 84 0 174 52l104-156q-126-108-244-108-63 0-151 27-72 21-91 25-26 4-62 4-88 0-176-52z"/><glyph horiz-adv-x="1016"/><glyph horiz-adv-x="2032"/><glyph horiz-adv-x="1016"/><glyph horiz-adv-x="2032"/><glyph horiz-adv-x="677"/><glyph horiz-adv-x="508"/><glyph horiz-adv-x="338"/><glyph horiz-adv-x="338"/><glyph horiz-adv-x="254"/><glyph horiz-adv-x="406"/><glyph horiz-adv-x="112"/><glyph unicode="‐" horiz-adv-x="860" d="M176 415v254h508v-254h-508z"/><glyph unicode="‑" horiz-adv-x="860" d="M176 415v254h508v-254h-508z"/><glyph unicode="‒" horiz-adv-x="860" d="M176 415v254h508v-254h-508z"/><glyph unicode="–" horiz-adv-x="1024" d="M-12 469v242h1048v-242h-1048z"/><glyph unicode="—" horiz-adv-x="2048" d="M-12 469v242h2072v-242h-2072z"/><glyph unicode="‘" horiz-adv-x="573" d="M167 947v139q0 131 32.5 226.5t109.5 195.5l98-77q-37-54-54.5-93t-34.5-104h101v-287h-252z"/><glyph unicode="’" horiz-adv-x="573" d="M155 1222v286h252v-138q0-132-32.5-227t-109.5-196l-98 77q37 54 54.5 93.5t34.5 104.5h-101z"/><glyph unicode="‚" horiz-adv-x="573" d="M155 0v286h252v-138q0-132-32.5-227t-109.5-195l-98 76q37 55 54.5 94t34.5 104h-101z"/><glyph unicode="“" horiz-adv-x="983" d="M163 947v139q0 131 32.5 226.5t109.5 195.5l98-77q-37-54-54.5-93t-34.5-104h101v-287h-252zm408 0v139q0 131 32 226.5t110 195.5l98-77q-37-54-54.5-93t-34.5-104h101v-287h-252z"/><glyph unicode="”" horiz-adv-x="983" d="M160 1222v286h252v-138q0-132-32.5-227t-109.5-196l-98 77q37 54 54.5 93.5t34.5 104.5h-101zm408 0v286h252v-138q0-132-32.5-227t-110.5-196l-97 77q37 54 54.5 93.5t33.5 104.5h-100z"/><glyph unicode="„" horiz-adv-x="983" d="M160 0v286h252v-138q0-132-32.5-227t-109.5-195l-98 76q37 55 54.5 94t34.5 104h-101zm408 0v286h252v-138q0-132-32.5-227t-110.5-195l-97 76q37 55 54.5 94t33.5 104h-100z"/><glyph unicode="•" d="M307 746q0 127 90 217t217 90 217-90 90-217q0-128-90-218t-217-90-217 90-90 218z"/><glyph unicode="…" horiz-adv-x="2048" d="M184 129q0 65 46 110.5t111 45.5 111-45.5 46-110.5-46-111-111-46-111 46-46 111zm683 0q0 65 45.5 110.5t110.5 45.5 111-45.5 46-110.5-46-111-111-46-110.5 46-45.5 111zm682 0q0 65 46 110.5t111 45.5 111-45.5 46-110.5-46-111-111-46-111 46-46 111z"/><glyph horiz-adv-x="406"/><glyph unicode="‹" horiz-adv-x="491" d="M27 540l183 548h255l-185-548 185-540h-255z"/><glyph unicode="›" horiz-adv-x="491" d="M27 0l185 548-185 540h255l183-540-183-548h-255z"/><glyph horiz-adv-x="508"/><glyph unicode="™" horiz-adv-x="2048" d="M101 1324v147h708v-147h-262v-693h-182v693h-264zm823-693v840h267l219-540 230 540h265v-840h-176v691l-275-691h-88l-266 691v-691h-176z"/><glyph unicode="◼" horiz-adv-x="1090" d="M0 0v1090h1090v-1090h-1090z"/></font>
</defs>
</svg>
