<svg version="1.1" id="Layer_1" xmlns="http://www.w3.org/2000/svg" xmlns:xlink="http://www.w3.org/1999/xlink" x="0px" y="0px"
	 width="78px" height="75px" viewBox="0 0 78 75" enable-background="new 0 0 78 75" xml:space="preserve">
<polygon points="54,13 54,16 75,16 75,58 3,58 3,16 24,16 24,13 0,13 0,61 78,61 78,13 "/>
<path d="M39,22c-8.284,0-15,6.716-15,15s6.716,15,15,15s15-6.716,15-15S47.284,22,39,22z M39,49c-6.627,0-12-5.373-12-12
	s5.373-12,12-12s12,5.373,12,12S45.627,49,39,49z"/>
<polygon points="39,14.032 51,21.339 51,1 48,1 48,16 39,10.52 30,16 30,1 27,1 27,21.339 "/>
</svg>
